<svg xmlns="http://www.w3.org/2000/svg" version="1.0" preserveAspectRatio="xMidYMid meet" viewBox="603 289 393.7 195.7">

<g transform="translate(0.000000,900.000000) scale(0.100000,-0.100000)" fill="#000000" stroke="none">
<path d="M6378 5756 c-192 -193 -348 -355 -348 -361 0 -5 156 -163 347 -352 l347 -343 615 0 615 0 340 339 340 339 -142 142 c-78 77 -142 143 -142 145 0 3 172 4 383 4 l382 -2 124 -128 124 -128 -145 -146 -145 -145 -220 0 -219 0 -209 -209 c-115 -115 -211 -213 -212 -217 -2 -5 227 -8 519 -6 l523 3 358 357 c196 196 356 361 354 366 -2 5 -156 161 -342 347 l-340 339 -995 0 -995 0 355 -355 c195 -195 356 -360 358 -367 1 -8 -49 -64 -111 -126 l-114 -112 -445 0 -445 0 -126 127 c-70 69 -127 129 -127 133 0 3 62 68 139 143 l138 138 307 -3 c168 -2 306 -1 306 2 0 3 -96 101 -213 218 l-212 212 -190 -2 -190 -1 -347 -351z"/>
<path d="M6277 4537 l-29 -23 0 -145 c-1 -79 2 -154 6 -166 9 -28 70 -57 103 -48 45 11 73 49 73 100 0 41 -2 45 -25 45 -14 0 -25 -6 -26 -12 -1 -7 -2 -20 -3 -28 -2 -8 -3 -23 -4 -32 -3 -28 -58 -24 -66 5 -10 37 -7 237 4 258 22 39 76 9 68 -39 -2 -12 5 -18 25 -20 24 -3 27 0 27 28 0 87 -87 131 -153 77z"/>
<path d="M6498 4539 c-24 -18 -28 -28 -28 -73 0 -57 7 -70 74 -137 50 -51 62 -99 29 -118 -25 -13 -53 4 -53 33 0 17 -7 25 -26 29 -33 6 -38 -9 -22 -58 10 -31 21 -42 50 -53 33 -13 41 -12 74 4 75 37 71 113 -10 201 -58 63 -73 100 -53 127 18 25 50 16 57 -14 4 -18 13 -25 30 -25 22 0 25 4 23 30 -5 65 -89 96 -145 54z"/>
<path d="M6698 4554 c-5 -4 -8 -94 -8 -201 l0 -193 68 0 c55 0 73 4 90 20 31 29 34 51 30 199 -4 160 -10 170 -109 178 -35 3 -67 2 -71 -3z m111 -58 c8 -9 11 -57 9 -147 l-3 -134 -32 -3 -33 -3 0 150 0 151 24 0 c13 0 29 -6 35 -14z"/>
<path d="M7024 4551 c-2 -2 -4 -91 -4 -198 l0 -193 68 0 c97 1 117 18 117 103 0 49 -5 70 -18 85 -18 19 -18 22 -3 44 9 13 16 42 16 68 0 66 -25 87 -108 92 -35 1 -66 1 -68 -1z m107 -58 c15 -15 7 -84 -12 -96 -31 -20 -49 -1 -49 51 0 27 3 52 6 55 9 9 42 3 55 -10z m8 -167 c7 -8 11 -36 9 -63 -3 -48 -3 -48 -40 -51 l-38 -3 0 65 0 66 29 0 c16 0 34 -6 40 -14z"/>
<path d="M7256 4553 c-3 -3 -6 -93 -6 -200 l0 -193 80 0 c79 0 80 0 80 25 0 23 -3 25 -50 25 l-50 0 -2 172 c-3 165 -4 171 -24 174 -12 2 -24 1 -28 -3z"/>
<path d="M7499 4558 c0 -2 -15 -91 -33 -198 -27 -159 -30 -196 -19 -198 27 -7 43 7 43 38 0 29 2 30 45 30 38 0 45 -3 45 -19 0 -35 12 -51 36 -51 34 0 33 13 -18 305 -6 39 -12 75 -12 80 -1 9 -84 21 -87 13z m55 -163 c4 -27 10 -65 13 -82 5 -31 4 -33 -26 -33 -36 0 -38 9 -19 121 12 76 21 74 32 -6z"/>
<path d="M7725 4550 c-41 -16 -45 -31 -46 -190 0 -151 0 -154 25 -179 32 -31 85 -33 123 -4 23 17 29 29 31 72 3 49 2 51 -22 51 -20 0 -26 -5 -26 -22 0 -41 -11 -66 -31 -71 -39 -10 -49 17 -49 138 0 63 4 125 10 139 19 50 70 23 70 -37 0 -20 4 -23 25 -19 20 3 25 10 25 33 0 76 -64 118 -135 89z"/>
<path d="M7907 4554 c-4 -4 -7 -94 -7 -201 l0 -193 30 0 30 0 0 64 c0 42 5 67 14 75 11 9 19 -2 43 -61 25 -63 33 -73 56 -76 15 -2 27 0 27 3 0 4 -19 53 -42 111 l-42 104 44 85 c25 46 41 87 38 91 -4 3 -17 4 -30 0 -17 -4 -34 -29 -63 -89 l-40 -82 -5 85 c-4 76 -7 85 -25 88 -12 2 -24 0 -28 -4z"/>
<path d="M8237 4553 c-4 -3 -7 -93 -7 -200 l0 -193 30 0 30 0 0 85 0 85 40 0 40 0 0 -85 0 -85 30 0 30 0 -2 198 -3 197 -25 0 c-25 0 -25 -2 -28 -87 l-3 -88 -39 0 -40 0 0 90 c0 88 -1 90 -23 90 -13 0 -27 -3 -30 -7z"/>
<path d="M8521 4508 c-17 -84 -51 -301 -51 -325 0 -18 6 -23 25 -23 22 0 25 4 25 36 l0 35 48 -3 c28 -2 47 -8 48 -15 1 -7 2 -22 3 -33 1 -15 8 -20 31 -20 26 0 30 3 25 23 -3 12 -14 83 -26 157 -36 237 -28 215 -76 218 l-41 3 -11 -53z m68 -131 c14 -102 15 -97 -19 -97 -25 0 -30 4 -30 25 0 43 24 165 31 157 4 -4 12 -42 18 -85z"/>
<path d="M8748 4543 c-35 -22 -41 -60 -36 -220 3 -134 12 -155 69 -167 65 -13 109 25 109 95 0 46 -2 49 -25 49 -22 0 -25 -4 -25 -40 0 -44 -22 -65 -52 -49 -16 9 -18 26 -18 149 0 126 2 139 19 145 32 10 50 -5 53 -43 2 -29 7 -37 23 -37 17 0 20 8 23 47 3 44 1 49 -30 68 -40 24 -74 25 -110 3z"/>
<path d="M8940 4361 l0 -201 30 0 29 0 3 72 c2 39 8 73 13 75 6 1 23 -31 38 -72 26 -70 30 -75 57 -75 l29 0 -13 38 c-8 20 -25 65 -40 99 -14 34 -26 71 -26 81 0 10 16 47 35 82 41 77 45 103 13 98 -16 -2 -33 -25 -64 -88 l-42 -85 -4 85 c-3 84 -3 85 -30 88 l-28 3 0 -200z"/>
<path d="M9187 4554 c-4 -4 -7 -94 -7 -201 l0 -193 84 0 c82 0 84 0 84 25 0 24 -4 25 -54 25 l-54 0 0 60 0 60 40 0 c36 0 40 3 40 25 0 23 -4 25 -40 25 l-40 0 0 64 0 64 50 -5 c33 -3 50 -1 51 6 6 47 7 46 -71 49 -42 1 -79 0 -83 -4z"/>
<path d="M9397 4553 c-4 -3 -7 -93 -7 -200 l0 -193 30 0 30 0 0 80 0 80 29 0 c35 0 41 -13 41 -96 l0 -64 31 0 32 0 -5 74 c-3 45 -11 82 -21 96 -15 22 -15 25 0 42 11 13 16 37 16 80 0 54 -3 64 -27 85 -22 18 -39 23 -85 23 -32 0 -61 -3 -64 -7z m107 -59 c18 -18 21 -76 6 -105 -6 -11 -21 -19 -35 -19 -24 0 -25 3 -25 64 0 60 5 72 32 75 4 1 14 -6 22 -15z"/>
<path d="M9665 4548 c-32 -18 -44 -40 -45 -80 0 -53 12 -77 69 -134 42 -42 51 -58 51 -87 0 -26 -5 -36 -20 -40 -25 -7 -50 17 -50 48 0 21 -3 22 -27 16 -28 -8 -30 -13 -18 -68 12 -55 116 -65 155 -16 40 51 20 120 -54 195 -42 42 -47 52 -44 85 2 31 7 39 26 41 18 3 26 -3 35 -27 8 -23 18 -31 35 -31 22 0 24 3 18 33 -12 61 -79 95 -131 65z"/>
</g>
</svg>